<svg xmlns="http://www.w3.org/2000/svg" width="1270" height="485" viewBox="0 0 1270 485">
  <g id="appstore" transform="translate(-7250 3410)">
    <g id="Rectangle_282" data-name="Rectangle 282" transform="translate(7250 -3410)" stroke="#000" stroke-width="1">
      <rect width="1270" height="485" rx="50" stroke="none"/>
      <rect x="0.5" y="0.5" width="1269" height="484" rx="49.5" fill="none"/>
    </g>
    <g id="Group_753" data-name="Group 753">
      <g id="Group_750" data-name="Group 750" transform="translate(0 649)">
        <text id="App_Store" data-name="App Store" transform="translate(7693 -3739)" fill="#fff" font-size="120" font-family="Poppins-Bold, Poppins" font-weight="700"><tspan x="0" y="0">App Store</tspan></text>
        <text id="Download_on_the" data-name="Download on the" transform="translate(7693 -3872)" fill="#fff" font-size="60" font-family="Poppins-Bold, Poppins" font-weight="700"><tspan x="0" y="0">Download on the</tspan></text>
      </g>
      <path id="apple-black" d="M189.089,147.723c.391,42.079,36.914,56.082,37.319,56.26a152.173,152.173,0,0,1-19.242,39.547c-11.59,16.939-23.618,33.815-42.565,34.165-18.618.343-24.605-11.04-45.891-11.04s-27.931,10.691-45.555,11.384c-18.29.693-32.217-18.316-43.9-35.193-23.878-34.522-42.126-97.55-17.624-140.1C23.8,81.623,45.553,68.243,69.163,67.9c17.96-.343,34.911,12.083,45.891,12.083s31.572-14.943,53.229-12.748c9.066.377,34.515,3.662,50.856,27.582-1.317.816-30.365,17.727-30.05,52.907M154.1,44.4c9.71-11.754,16.246-28.116,14.463-44.4-14,.563-30.921,9.327-40.96,21.074-9,10.4-16.877,27.053-14.751,43.011,15.6,1.207,31.538-7.928,41.248-19.689" transform="translate(7369.8 -3307)" fill="#fff"/>
    </g>
  </g>
</svg>
